<svg xmlns="http://www.w3.org/2000/svg" viewBox="0 0 1336 603" width="1336" height="603">
  <g fill="#222222" fill-rule="evenodd">
    <path d="M 683 560 L 684 565 L 702 565 L 703 564 L 703 560 L 701 559 L 684 559 Z"/> <path d="M 431 560 L 431 565 L 450 565 L 451 563 L 450 559 L 433 559 Z"/> <path d="M 1067 540 L 1066 544 L 1069 546 L 1069 570 L 1070 571 L 1071 581 L 1075 583 L 1097 583 L 1099 582 L 1099 578 L 1097 576 L 1091 576 L 1090 577 L 1078 577 L 1077 576 L 1077 565 L 1078 564 L 1089 564 L 1095 562 L 1095 558 L 1093 557 L 1078 558 L 1077 557 L 1077 546 L 1078 545 L 1097 545 L 1098 540 L 1097 539 Z"/> <path d="M 988 540 L 987 543 L 990 547 L 991 577 L 992 580 L 996 583 L 1019 583 L 1020 582 L 1020 577 L 1019 576 L 1013 576 L 1012 577 L 999 577 L 998 576 L 998 565 L 999 564 L 1016 563 L 1016 558 L 1015 557 L 999 558 L 998 557 L 998 546 L 999 545 L 1018 545 L 1019 539 Z"/> <path d="M 978 539 L 972 539 L 972 568 L 971 569 L 969 568 L 955 543 L 952 540 L 945 540 L 944 541 L 945 544 L 945 558 L 946 559 L 946 579 L 948 584 L 953 581 L 952 579 L 952 557 L 953 556 L 956 558 L 971 582 L 974 584 L 977 582 L 978 580 L 978 555 L 979 554 L 979 541 Z"/> <path d="M 881 539 L 864 539 L 863 540 L 858 540 L 855 542 L 859 546 L 860 583 L 866 582 L 866 570 L 868 566 L 875 568 L 882 567 L 890 561 L 892 556 L 892 550 L 890 545 Z"/> <path d="M 867 545 L 877 544 L 881 546 L 884 549 L 885 552 L 883 558 L 878 562 L 868 561 L 866 557 L 866 546 Z"/> <path d="M 846 541 L 840 539 L 823 539 L 816 541 L 816 545 L 819 547 L 820 583 L 825 583 L 826 582 L 826 567 L 827 566 L 842 567 L 850 561 L 852 555 L 852 550 Z"/> <path d="M 826 546 L 829 544 L 840 545 L 844 550 L 844 557 L 838 562 L 827 561 L 826 560 Z"/> <path d="M 790 539 L 787 542 L 773 582 L 778 583 L 782 575 L 802 575 L 805 583 L 810 583 L 811 578 L 797 546 L 796 540 Z"/> <path d="M 794 552 L 799 568 L 798 569 L 788 569 L 786 570 L 785 567 L 791 553 Z"/> <path d="M 759 539 L 758 540 L 758 582 L 763 583 L 765 578 L 766 541 L 762 539 Z"/> <path d="M 643 541 L 643 544 L 646 547 L 646 575 L 648 581 L 650 583 L 674 583 L 676 581 L 676 577 L 674 576 L 669 577 L 654 577 L 653 576 L 654 565 L 655 564 L 668 564 L 672 562 L 671 557 L 655 558 L 654 557 L 654 546 L 655 545 L 674 545 L 675 544 L 674 539 L 661 539 L 660 540 L 646 540 Z"/> <path d="M 564 541 L 564 544 L 567 546 L 568 579 L 571 583 L 596 583 L 597 582 L 597 577 L 594 576 L 576 577 L 575 576 L 575 565 L 576 564 L 589 564 L 593 562 L 592 557 L 576 558 L 575 557 L 575 546 L 576 545 L 595 545 L 596 540 L 595 539 L 581 539 L 580 540 L 567 540 Z"/> <path d="M 521 540 L 524 583 L 529 582 L 529 556 L 530 555 L 532 556 L 534 561 L 537 564 L 547 581 L 549 583 L 554 583 L 555 579 L 556 541 L 553 539 L 549 539 L 549 568 L 547 569 L 531 542 L 527 539 Z"/> <path d="M 503 539 L 503 583 L 507 583 L 509 581 L 509 571 L 510 570 L 510 540 Z"/> <path d="M 414 539 L 413 540 L 413 583 L 417 583 L 419 582 L 420 577 L 421 542 L 418 539 Z"/> <path d="M 369 539 L 367 543 L 369 583 L 373 583 L 375 581 L 375 565 L 376 564 L 393 564 L 394 565 L 394 583 L 399 583 L 401 578 L 401 540 L 400 539 L 394 539 L 394 555 L 392 557 L 376 558 L 375 557 L 375 541 L 372 539 Z"/> <path d="M 283 539 L 282 540 L 282 563 L 283 564 L 283 572 L 285 577 L 291 583 L 295 584 L 304 584 L 309 582 L 314 576 L 316 569 L 316 552 L 317 551 L 316 540 L 315 539 L 310 539 L 309 542 L 309 569 L 308 573 L 304 577 L 297 578 L 290 571 L 289 541 L 287 539 Z"/> <path d="M 1036 539 L 1029 546 L 1028 549 L 1029 556 L 1033 560 L 1048 566 L 1052 570 L 1051 575 L 1045 579 L 1037 578 L 1031 572 L 1028 572 L 1027 575 L 1035 583 L 1048 584 L 1053 582 L 1058 577 L 1059 567 L 1055 561 L 1037 554 L 1035 551 L 1035 548 L 1037 545 L 1041 543 L 1048 544 L 1054 552 L 1056 552 L 1057 551 L 1057 542 L 1046 538 Z"/> <path d="M 914 538 L 907 540 L 899 549 L 897 556 L 897 566 L 899 570 L 899 573 L 904 580 L 911 584 L 918 584 L 927 581 L 933 575 L 935 570 L 936 559 L 935 558 L 935 552 L 932 546 L 926 540 L 921 538 Z"/> <path d="M 914 544 L 921 545 L 928 554 L 928 559 L 929 560 L 928 570 L 920 578 L 914 578 L 911 576 L 906 570 L 904 563 L 904 557 L 906 550 L 911 545 Z"/> <path d="M 720 541 L 713 549 L 711 555 L 711 566 L 714 575 L 720 581 L 728 584 L 734 584 L 740 581 L 742 581 L 743 584 L 747 583 L 749 579 L 749 564 L 748 561 L 746 560 L 732 561 L 733 565 L 738 565 L 743 567 L 741 574 L 735 578 L 729 578 L 725 576 L 720 570 L 718 564 L 719 552 L 725 545 L 736 544 L 739 546 L 742 553 L 745 553 L 747 547 L 746 542 L 734 538 L 724 539 Z"/> <path d="M 613 539 L 607 544 L 605 548 L 606 557 L 614 562 L 624 565 L 629 570 L 629 572 L 622 579 L 618 579 L 613 577 L 607 571 L 604 573 L 604 575 L 607 580 L 613 583 L 625 584 L 630 582 L 634 578 L 636 573 L 636 567 L 633 562 L 625 558 L 615 555 L 612 551 L 612 548 L 615 544 L 622 543 L 625 544 L 631 552 L 633 552 L 635 548 L 635 545 L 632 541 L 622 538 Z"/> <path d="M 471 539 L 462 547 L 459 553 L 460 571 L 463 577 L 471 583 L 476 583 L 477 584 L 486 583 L 493 579 L 495 574 L 491 573 L 489 575 L 481 578 L 473 576 L 468 571 L 466 566 L 466 554 L 469 549 L 476 544 L 485 545 L 490 554 L 492 554 L 494 545 L 491 541 L 481 538 Z"/> <path d="M 335 539 L 329 543 L 327 548 L 327 555 L 332 560 L 347 566 L 350 569 L 350 574 L 346 578 L 340 579 L 334 577 L 327 571 L 326 576 L 329 580 L 334 583 L 348 584 L 352 582 L 357 576 L 358 573 L 357 565 L 352 560 L 339 556 L 334 552 L 333 549 L 337 544 L 344 543 L 350 547 L 352 552 L 355 552 L 356 543 L 352 540 L 343 538 Z"/> <path d="M 255 538 L 248 540 L 243 545 L 241 550 L 242 555 L 246 560 L 256 563 L 264 568 L 265 573 L 261 578 L 252 578 L 244 572 L 241 572 L 241 576 L 243 579 L 249 583 L 261 584 L 267 582 L 271 578 L 273 572 L 272 566 L 268 561 L 252 555 L 249 552 L 248 549 L 252 544 L 258 543 L 264 546 L 267 552 L 270 552 L 271 543 L 264 539 Z"/> <path d="M 643 365 L 630 378 L 630 385 L 629 386 L 630 431 L 642 444 L 645 445 L 682 445 L 683 446 L 683 477 L 682 478 L 630 478 L 630 501 L 695 501 L 708 488 L 708 434 L 696 422 L 656 422 L 655 421 L 655 390 L 656 389 L 708 389 L 709 367 L 708 365 Z"/> <path d="M 116 365 L 116 501 L 141 501 L 141 449 L 142 448 L 156 448 L 158 450 L 158 453 L 161 458 L 161 462 L 167 475 L 171 489 L 174 495 L 175 501 L 200 501 L 201 499 L 199 496 L 193 476 L 183 451 L 199 435 L 200 432 L 200 379 L 185 365 Z"/> <path d="M 142 389 L 173 389 L 174 390 L 174 424 L 173 425 L 142 425 L 141 424 L 141 390 Z"/> <path d="M 1292 363 L 1292 501 L 1316 501 L 1317 500 L 1317 364 L 1316 363 Z"/> <path d="M 1221 363 L 1218 371 L 1217 381 L 1215 386 L 1193 496 L 1193 501 L 1218 501 L 1222 478 L 1225 476 L 1254 476 L 1258 487 L 1258 493 L 1260 497 L 1260 501 L 1285 501 L 1285 496 L 1262 385 L 1262 380 L 1260 375 L 1259 365 L 1257 363 Z"/> <path d="M 1238 402 L 1241 404 L 1247 434 L 1247 439 L 1249 444 L 1250 451 L 1248 453 L 1229 453 L 1228 452 Z"/> <path d="M 1101 363 L 1100 364 L 1100 501 L 1124 501 L 1125 500 L 1125 442 L 1132 440 L 1161 440 L 1163 442 L 1163 501 L 1187 501 L 1188 500 L 1188 363 L 1164 363 L 1163 364 L 1163 415 L 1161 417 L 1126 417 L 1125 416 L 1125 364 L 1124 363 Z"/> <path d="M 1023 363 L 1008 377 L 1008 487 L 1022 501 L 1078 501 L 1092 488 L 1093 485 L 1093 430 L 1092 429 L 1049 429 L 1049 453 L 1066 453 L 1067 454 L 1067 476 L 1066 477 L 1034 477 L 1033 476 L 1033 389 L 1035 387 L 1066 387 L 1067 388 L 1067 410 L 1093 410 L 1093 378 L 1078 363 Z"/> <path d="M 906 363 L 906 501 L 931 501 L 931 419 L 932 418 L 934 419 L 939 428 L 941 434 L 943 436 L 943 438 L 946 442 L 975 501 L 1000 501 L 1001 500 L 1001 436 L 1000 435 L 1001 364 L 1000 363 L 976 363 L 975 364 L 975 444 L 973 445 L 971 443 L 931 363 Z"/> <path d="M 837 363 L 828 410 L 825 420 L 821 445 L 819 450 L 818 460 L 816 465 L 813 485 L 810 495 L 810 501 L 834 501 L 836 496 L 839 478 L 842 476 L 871 476 L 873 479 L 873 484 L 877 501 L 902 501 L 875 364 L 874 363 Z"/> <path d="M 855 401 L 857 402 L 860 419 L 865 439 L 865 444 L 867 450 L 865 453 L 847 453 L 845 451 Z"/> <path d="M 717 363 L 717 501 L 742 501 L 742 442 L 749 440 L 778 440 L 780 442 L 779 444 L 779 500 L 780 501 L 805 501 L 805 364 L 804 363 L 781 363 L 780 364 L 780 370 L 779 371 L 779 411 L 780 413 L 778 417 L 743 417 L 742 416 L 742 363 Z"/> <path d="M 496 363 L 495 364 L 495 501 L 579 501 L 579 477 L 521 477 L 520 476 L 520 444 L 522 442 L 576 442 L 576 419 L 522 419 L 520 417 L 520 388 L 521 387 L 579 387 L 579 363 Z"/> <path d="M 404 363 L 403 364 L 403 501 L 473 501 L 475 500 L 488 486 L 488 379 L 487 376 L 474 363 Z"/> <path d="M 430 387 L 461 387 L 462 388 L 462 476 L 461 477 L 430 477 L 429 476 L 428 470 L 429 469 L 429 388 Z"/> <path d="M 301 363 L 301 501 L 326 501 L 326 418 L 327 417 L 329 418 L 329 420 L 334 428 L 335 432 L 338 436 L 338 438 L 342 444 L 343 448 L 346 452 L 346 454 L 350 460 L 351 464 L 354 468 L 370 501 L 395 501 L 396 499 L 396 363 L 372 363 L 370 367 L 370 445 L 369 446 L 367 445 L 326 363 Z"/> <path d="M 234 363 L 232 364 L 230 370 L 230 375 L 223 410 L 221 415 L 218 435 L 216 440 L 216 445 L 214 450 L 213 460 L 208 480 L 208 485 L 205 495 L 205 501 L 229 501 L 231 497 L 234 478 L 236 476 L 266 476 L 268 479 L 272 501 L 297 501 L 270 364 L 269 363 Z"/> <path d="M 250 402 L 253 404 L 253 409 L 255 414 L 256 424 L 260 439 L 260 444 L 262 450 L 260 453 L 241 453 L 240 452 L 241 442 L 243 437 L 247 412 Z"/> <path d="M 37 363 L 23 376 L 23 488 L 37 501 L 92 501 L 96 499 L 107 487 L 107 429 L 63 429 L 63 453 L 77 453 L 80 452 L 82 454 L 82 476 L 81 477 L 49 477 L 48 476 L 48 388 L 49 387 L 81 387 L 82 388 L 82 410 L 107 410 L 107 378 L 103 372 L 93 363 Z"/> <path d="M 293 310 L 293 325 L 294 326 L 1046 326 L 1046 307 L 1045 306 L 1045 299 L 1041 297 L 1041 279 L 993 279 L 993 308 L 992 309 L 975 309 L 974 308 L 974 277 L 968 275 L 968 263 L 959 261 L 959 249 L 944 249 L 943 248 L 943 241 L 936 241 L 935 240 L 935 233 L 927 233 L 926 232 L 926 202 L 912 202 L 910 200 L 910 185 L 877 185 L 876 186 L 876 203 L 874 205 L 869 206 L 869 218 L 868 219 L 858 219 L 857 218 L 858 213 L 845 213 L 842 209 L 840 209 L 836 213 L 836 222 L 835 223 L 833 222 L 832 193 L 831 190 L 825 190 L 823 188 L 823 183 L 819 183 L 817 179 L 817 148 L 816 147 L 816 114 L 815 113 L 815 78 L 814 77 L 813 39 L 793 39 L 792 40 L 790 107 L 789 108 L 789 134 L 788 135 L 788 160 L 787 161 L 787 186 L 786 187 L 786 212 L 785 213 L 785 266 L 784 267 L 775 267 L 774 266 L 774 198 L 757 198 L 755 199 L 747 193 L 746 189 L 746 164 L 747 163 L 747 124 L 746 123 L 746 115 L 725 117 L 724 118 L 719 118 L 719 123 L 718 124 L 718 151 L 716 153 L 713 154 L 678 154 L 678 262 L 677 263 L 677 268 L 675 269 L 673 267 L 673 232 L 668 232 L 667 231 L 667 164 L 656 157 L 635 156 L 635 230 L 634 231 L 625 231 L 624 230 L 624 217 L 613 211 L 613 204 L 612 204 L 611 212 L 602 218 L 602 227 L 597 228 L 597 254 L 595 256 L 589 256 L 588 257 L 588 262 L 583 266 L 579 266 L 579 295 L 576 297 L 573 295 L 573 261 L 570 258 L 570 243 L 567 242 L 567 188 L 551 188 L 551 196 L 548 198 L 548 240 L 546 242 L 544 242 L 544 256 L 542 258 L 537 258 L 535 256 L 535 228 L 534 227 L 521 227 L 520 226 L 520 211 L 517 209 L 517 195 L 515 195 L 503 203 L 497 205 L 483 192 L 472 203 L 466 204 L 466 221 L 464 223 L 461 223 L 461 230 L 460 231 L 458 231 L 456 229 L 456 225 L 453 225 L 451 223 L 451 218 L 446 217 L 445 215 L 445 122 L 452 111 L 453 105 L 450 96 L 440 88 L 439 62 L 443 57 L 443 52 L 437 45 L 436 23 L 435 23 L 434 27 L 433 46 L 428 50 L 427 56 L 429 60 L 432 62 L 431 85 L 430 89 L 421 96 L 418 102 L 419 113 L 425 120 L 425 228 L 424 229 L 415 228 L 412 224 L 412 214 L 411 213 L 406 213 L 405 214 L 405 220 L 402 221 L 402 229 L 401 230 L 396 230 L 396 256 L 394 258 L 378 258 L 376 256 L 376 244 L 375 243 L 367 243 L 365 241 L 365 232 L 361 231 L 361 225 L 347 225 L 347 261 L 346 262 L 338 262 L 336 260 L 336 246 L 331 244 L 331 228 L 330 225 L 325 220 L 323 220 L 321 218 L 321 210 L 320 210 L 320 218 L 318 220 L 315 220 L 311 224 L 310 227 L 310 251 L 308 253 L 303 253 L 303 307 L 301 309 L 294 309 Z"/>
  </g>
</svg>